<svg xmlns="http://www.w3.org/2000/svg" width="62" height="25"><path d="M52.927 17.376h-.766c-.238-.003-.419-.029-.552-.14-.133-.114-.177-.292-.175-.53l-.002-.663c0-.24.044-.417.178-.531.133-.111.313-.138.55-.138h.507c.565-.001.919-.122 1.132-.373.211-.253.271-.614.271-1.066-.001-.654-.304-1.55-.835-2.49-.315-.539-.772-1.057-1.172-1.491-.17-.183-.258-.318-.258-.49 0-.113.037-.224.09-.37.297-.848 1.503-4.395 1.526-4.463l.002-.016c-.014-.001-.034-.005-.062-.005h-2.673c-.042 0-.042.002-.042.002.005.005-.001.002 0 .038l-.001 14.801c.001.239-.042.416-.174.53-.133.112-.314.137-.55.137-.302 0-.392.003-.605.003-.235-.003-.418-.027-.55-.14-.132-.114-.179-.294-.178-.533V3.343c-.001-.24.046-.418.178-.532.134-.11.315-.136.551-.137h5.032c.463-.01.657.135.983.619.019.026.04.051.17.232.162.221.243.375.242.558 0 .12-.034.245-.085.403-.344 1.046-1.47 4.065-1.642 4.44-.09.185-.146.3-.145.377 0 .066.036.144.194.289.773.725 1.346 1.51 1.678 2.473.224.657.337 1.35.338 2.027-.005 2.01-.81 3.299-3.155 3.284M59.522 3.66C54.285 1.658 49.201.639 43.597.473c-1.251.029-1.976.463-2.275 1.221a44.628 44.628 0 0 0-1.294 3.588c.684-.098 1.34-.193 1.51-.229.567-.14.545-.191.569-.596V3.252c0-.238.041-.416.173-.53.13-.116.31-.142.547-.142h.732c.236.001.42.029.55.141.132.115.178.293.176.531l.002.878c.016.216.05.217.192.232.084 0 .203-.024.332-.06a23.33 23.33 0 0 0 1.713-.597.836.836 0 0 1 .35-.098c.166 0 .285.103.389.28.155.262.462.87.503.948l.004.01c.034.072.05.139.052.198a.294.294 0 0 1-.19.28 5.023 5.023 0 0 1-.463.182c-.345.12-.742.234-.973.29-.48.142-.849.229-1.338.348-.46.126-.555.181-.57.618v1.31c.021.435.095.468.549.491.462 0 2.283 0 2.283.002.239 0 .422.027.553.14.13.114.176.292.174.53v.479c.002.24-.044.417-.174.533-.134.11-.314.138-.55.138h-2.286c-.456.025-.526.056-.55.494v1.49c.022.433.096.469.55.493h2.285c.237 0 .417.026.55.138.131.114.177.29.177.53 0 .31-.002.381-.002.481.002.238-.044.416-.174.53-.131.111-.311.137-.545.138H44.83c-.447.022-.522.064-.543.47l.001.607c0 .989-.17 1.55-.555 2.313a3.717 3.717 0 0 1-1.763 1.729c-.14.064-.301.113-.461.163 1.43.485 2.854.904 4.286 1.247a5.034 5.034 0 0 1-1.65 3.035c-.195.131-.223.211-.135.39.028.052.06.109.093.163.077.118.255.21.496.069 1.53-.667 2.801-1.594 3.871-3.096 2.46.436 4.969.676 7.595.729.942.012 1.383-.468 1.825-1.322 2.093-5.134 3.082-10.079 3.13-15.626-.054-.826-.373-1.3-1.498-1.888M41.557 8.893c.45-.023.529-.06.55-.491V7.155a.32.32 0 0 0-.083-.234.369.369 0 0 0-.253-.104h-.036a.792.792 0 0 0-.162.017c-.493.095-1.418.255-2.1.377a39.97 39.97 0 0 0-.395 1.682h2.479m.55 3.475v-1.162c-.021-.433-.102-.471-.547-.496l-2.714.002-.004-.002c-.042 0-.07-.013-.107-.018-.119.717-.22 1.44-.303 2.169h3.125c.45-.024.529-.06.55-.493m-.153 4.299c.09-.315.152-.417.153-.88v-.614c-.021-.432-.1-.472-.553-.495l-3.22-.001h-.004c-.022 0-.038-.003-.06-.005-.064.942-.11 1.894-.115 2.87.048.893.402 1.2 1.09 1.596.286.112.57.213.856.32v-1.044c.002-.147.042-.242.107-.296.082-.072.206-.106.401-.144.306-.058.54-.17.725-.312.26-.206.471-.5.62-.995m-8.765-3.086h-8.514c-.145 0-.083-.1.019-.12 1.255-.258 2.383-.459 3.365-.86.197-.069.389-.154.589-.243.257-.124.453-.124.856.037 1.018.425 2.248.735 3.67 1.049.191.042.174.137.015.137m-.675 1.83v2.866c0 .102-.032.126-.13.126h-7.073c-.095 0-.128-.024-.128-.124v-2.868c0-.102.034-.126.131-.126h7.07c.098 0 .13.024.13.126M26.858 8.4h3.93c.26 0 .32.132.15.285-.139.127-.982.71-1.648 1.11-.303.163-.5.163-.78.003a24.72 24.72 0 0 1-1.764-1.126c-.166-.126-.117-.272.112-.272m10.6 3.855c-2.714-.318-4.407-.674-5.835-1.133-.245-.108-.212-.253.01-.428a37.02 37.02 0 0 0 3.109-2.255c.114-.091.18-.138.245-.195.14-.136.189-.363-.01-.526-.098-.085-.205-.156-.586-.417a38.19 38.19 0 0 0-.606-.415c-.33-.19-.51-.249-.886-.249h-5.42s-.36.026-.576-.177c-.2-.15-.387-.3-.545-.426-.253-.182-.434-.15-.643.05-.186.174-.431.36-.89.72-.503.391-.773.616-1.358 1-.641.43-2.418 1.252-2.64 1.34-.224.084-.299.271-.12.454.121.126.681.644 1.009.948.215.177.364.167.666.033.255-.113 1.753-.908 2.027-1.049.271-.14.444-.102.602.034.132.112.875.7 1.475 1.133.192.156.225.317.002.404-1.846.677-3.886 1.137-6.523 1.353-.336.036-.396.194-.357.42.025.148.116.687.172 1.034.026.198.188.293.45.271.862-.085 2.155-.252 2.447-.332.288-.078.429.018.429.21v5.014c0 .628.34.955.97.955h9.532c.625 0 .967-.325.967-.955v-4.95c0-.256.156-.338.417-.28.26.057 1.23.243 1.905.347.388.045.563.036.658-.28.099-.314.25-.896.312-1.189.062-.292-.084-.405-.41-.464M21.008 7.008h.739c.456 0 .634-.119.634-.578V6.2c0-.452.177-.579.64-.579h11.876c.463 0 .638.124.638.583v.221c0 .463.178.582.642.582h.738c.458 0 .631-.119.631-.58v-.935c.005-.546-.173-.992-.533-1.283-.361-.29-.889-.417-1.543-.417h-5.236s-.004-.446-.004-.735c0-.461-.175-.58-.634-.58h-1.328c-.46 0-.642.119-.642.578v.737H22.45c-.654 0-1.171.127-1.536.417-.366.29-.549.736-.547 1.283v.933c0 .465.179.582.641.582M8.375 15.297h7.047c.099 0 .128.026.128.126v2.856c0 .1-.03.123-.127.123h-7.05c-.092 0-.125-.02-.125-.122v-2.856c0-.1.03-.127.127-.127m9.928-11.286l-5.174-.004v-.95c0-.46-.175-.582-.638-.582h-1.39c-.458 0-.638.118-.638.578v.954L5.1 4.011c-.664 0-1.18.14-1.541.424-.363.283-.552.726-.552 1.29v1.574c0 .25-.075.311-.357.244-.577-.128-1.365-.302-1.528-.345-.445-.115-.647-.044-.768.403-.033.125-.154.577-.207.867-.08.449.08.6.53.678.235.042 1.363.293 1.98.429.23.066.32.144.314.334-.003.183-.01.37-.018.554-.002.056 0 .11-.004.161-.024.206-.049.244-.282.423-.485.37-1.04.693-1.507.952-.331.183-.671.359-.73.382-.42.189-.533.374-.338.792.115.248.277.614.344.762.196.422.403.453.826.264.23-.099.269-.116.886-.45l.312-.174c.136-.07.2-.036.185.108-.13 1.317-.102 2.086-.41 2.748-.194.412-.395.506-.815.693-.422.188-.535.366-.335.787.087.181.205.496.368.902.192.417.407.451.827.265.239-.105.82-.335 1.2-.721.666-.667.826-1.016 1.045-2.475.141-.943.193-1.157.354-3.6.002-.222.167-.313.313-.149.09.1.462.496.738.786.22.266.373.282.754.095a21.138 21.138 0 0 0 3.925-2.628c.142-.105.236-.024.236.106v3.13H7.293c-.63 0-.969.322-.969.958v4.487c0 .636.343.96.969.96h9.358c.625 0 .968-.325.968-.96V14.58c0-.636-.339-.957-.968-.957h-3.727V9.365c0-.462.178-.581.64-.581h4.33c.464 0 .642-.121.642-.586v-.665c0-.463-.178-.582-.642-.582H6.28c-.46 0-.636.12-.636.583l.003.67c0 .461.174.58.633.58h2.946c.173 0 .25.1.128.224-1.069 1.057-2.442 1.79-3.901 2.423-.292.1-.482-.027-.471-.327.025-.642.058-1.298.058-1.967 0 0 .042-2.541.042-2.711 0-.463.178-.583.64-.583h12.575c.336 0 .642-.032.642-.582V4.59c0-.355-.117-.579-.637-.579m.465 7.682a28.5 28.5 0 0 0-3.762-2.434c-.223-.12-.378-.086-.539.044-.26.226-.663.578-.803.723-.17.174-.18.436.037.584 1.194.669 2.733 1.763 3.592 2.487.104.104.241.128.416-.004.351-.268.968-.851 1.089-.97.164-.159.174-.28-.03-.43" fill="#FFF" fill-rule="evenodd"/></svg>