<svg xmlns="http://www.w3.org/2000/svg" width="45" height="20"><g fill="#FFF" fill-rule="evenodd" opacity=".797"><path d="M15.022 2.823h2.818c.792 0 1.186.428 1.186 1.283-.01 0-.027.06-.048.176a191.616 191.616 0 0 0-1.797 4.201 2.07 2.07 0 0 0-.05.246c0 .117.034.211.1.281 1.34 1.407 2.01 2.836 2.01 4.29 0 .867-.215 1.576-.643 2.127-.428.55-.988.826-1.681.826-.33 0-.857-.14-1.582-.422-.23-.059-.362-.199-.395-.422.011-.316.165-.48.461-.492.033 0 .088.017.165.052.692.258 1.164.387 1.418.387.384 0 .719-.193 1.005-.58.253-.375.378-.867.378-1.476 0-1.266-.603-2.538-1.812-3.815-.198-.246-.297-.498-.297-.756 0-.082.034-.222.1-.422a187.033 187.033 0 0 0 1.68-3.867.562.562 0 0 0 .066-.21c0-.376-.175-.563-.527-.563h-2.44c-.44 0-.658.234-.658.703v13.87c0 .315-.135.474-.405.474-.313 0-.47-.159-.47-.475V4.106c0-.855.402-1.283 1.204-1.283h.214zm-6.55-.773c.29.011.446.158.47.44v1.88c.867-.188 1.84-.48 2.916-.879a.196.196 0 0 1 .115-.035c.242.012.374.13.396.351 0 .246-.11.411-.33.493-1.142.421-2.175.732-3.098.931v2.936h2.9c.253.011.386.158.396.44-.01.257-.143.392-.396.403h-2.9v1.336c0 .622-.023 1.207-.067 1.758h3.363c.253.012.384.153.396.422-.012.27-.143.41-.396.422H8.79a6.746 6.746 0 0 1-.152.844c-.27 1.23-.734 2.273-1.395 3.13a8.273 8.273 0 0 1-1.616 1.581.632.632 0 0 1-.394.14c-.265-.047-.419-.21-.463-.492 0-.14.044-.258.133-.35.604-.47 1.081-.915 1.433-1.337.605-.703 1.055-1.577 1.352-2.62.066-.304.12-.603.165-.896H4.458c-.263-.012-.4-.152-.411-.422.01-.269.148-.41.411-.422h3.527c.056-.586.083-1.172.083-1.758V9.01H5.1c-.253-.01-.384-.146-.395-.404.011-.28.142-.428.395-.439h2.967V5.39c-.857.164-1.956.27-3.297.317-.252-.012-.384-.176-.394-.492.021-.2.153-.31.394-.334 1.275-.059 2.374-.176 3.297-.352V2.49c.033-.28.168-.428.404-.439z"/><path fill-rule="nonzero" d="M17.84 2.923h-3.032c-.745 0-1.103.382-1.103 1.183V18.24c0 .262.112.375.37.375.21 0 .304-.11.304-.375V4.37c0-.523.262-.803.759-.803h2.439c.408 0 .627.233.627.662a.629.629 0 0 1-.074.25 183.326 183.326 0 0 1-1.678 3.86c-.063.193-.094.323-.094.39 0 .234.09.464.27.688 1.224 1.293 1.84 2.589 1.84 3.883 0 .629-.132 1.14-.399 1.536-.304.41-.667.62-1.085.62-.27 0-.75-.13-1.46-.396a.503.503 0 0 0-.12-.043c-.241.01-.355.13-.365.378.026.182.128.29.333.343.714.277 1.232.415 1.545.415.661 0 1.192-.26 1.602-.787.414-.533.622-1.22.622-2.066 0-1.425-.659-2.83-1.984-4.221a.493.493 0 0 1-.125-.35c0-.034.015-.11.057-.284a179.209 179.209 0 0 1 1.79-4.18c.02-.11.032-.173.047-.21-.015-.767-.367-1.132-1.086-1.132zm0-.2c.848 0 1.286.474 1.286 1.383l-.1.1c.079 0 .046.118.043.117a199.567 199.567 0 0 0-1.79 4.183c-.03.132-.047.213-.047.223 0 .093.024.163.07.212 1.358 1.425 2.04 2.878 2.04 4.36 0 .887-.222 1.618-.665 2.188-.448.575-1.037.864-1.76.864-.345 0-.882-.143-1.606-.425a.586.586 0 0 1-.471-.522c.013-.368.208-.576.561-.589a.52.52 0 0 1 .2.059c.68.253 1.145.38 1.383.38.35 0 .656-.176.922-.536.24-.356.361-.828.361-1.42 0-1.238-.593-2.487-1.79-3.752-.211-.263-.32-.537-.32-.819 0-.094.035-.24.11-.463.509-1.132 1.066-2.415 1.68-3.868a.504.504 0 0 0 .057-.169c0-.32-.132-.462-.427-.462h-2.44c-.382 0-.558.188-.558.603v13.87c0 .367-.176.574-.505.574-.368 0-.57-.203-.57-.575V4.106c0-.909.445-1.383 1.304-1.383h3.032zM8.168 2.49v2.04l-.082.098c-.926.176-2.028.294-3.305.353-.197.019-.289.096-.304.231.008.267.104.386.29.395 1.335-.046 2.43-.152 3.282-.315l.119.098v2.778l-.1.1H5.106c-.199.009-.291.112-.3.335.009.207.1.3.295.308h2.967l.1.1v1.336c0 .592-.028 1.181-.083 1.768l-.1.09H4.463c-.211.01-.307.109-.316.318.009.219.104.317.311.326h3.396l.099.115c-.044.293-.1.593-.168.909-.301 1.058-.758 1.944-1.371 2.656-.357.429-.84.879-1.438 1.341a.388.388 0 0 0-.106.267c.038.24.16.37.364.407.12 0 .23-.039.334-.12a8.173 8.173 0 0 0 1.596-1.563c.652-.844 1.111-1.873 1.378-3.092.065-.261.114-.537.15-.831l.099-.089h3.441c.2-.01.291-.106.3-.318-.009-.218-.1-.316-.295-.326H8.874l-.1-.108c.045-.557.067-1.14.067-1.75V9.01l.1-.1h2.896c.2-.008.292-.101.3-.3-.009-.231-.101-.334-.296-.343h-2.9l-.1-.1V5.231l.08-.097c.915-.198 1.943-.507 3.083-.927.18-.067.265-.194.266-.39-.018-.171-.108-.251-.297-.26-.023 0-.041.005-.08.028-1.08.4-2.057.694-2.93.883L8.84 4.37V2.498c-.018-.23-.132-.337-.369-.348-.18.01-.277.117-.304.34zm-.2-.012c.04-.327.21-.513.5-.527.347.013.545.199.573.54v1.756c.833-.188 1.76-.47 2.76-.837a.3.3 0 0 1 .177-.053c.29.015.463.168.491.451 0 .288-.135.49-.395.587-1.116.412-2.127.718-3.033.918v2.755h2.805c.307.014.479.204.49.543-.012.31-.185.487-.495.5h-2.8v1.236c0 .576-.02 1.129-.059 1.658h3.26c.305.015.477.198.49.526-.013.321-.184.504-.495.518H8.879c-.035.27-.082.525-.143.766-.272 1.244-.743 2.3-1.413 3.168-.455.592-1 1.126-1.633 1.6a.734.734 0 0 1-.474.16c-.307-.055-.493-.253-.545-.59 0-.166.054-.309.171-.43.6-.465 1.071-.905 1.42-1.323.593-.69 1.037-1.55 1.33-2.576.056-.264.105-.523.145-.775H4.454c-.316-.014-.494-.196-.507-.526.013-.32.191-.503.511-.518h3.436c.05-.55.074-1.103.074-1.658V9.11h-2.87c-.306-.013-.479-.19-.492-.508.013-.331.184-.521.495-.535h2.867V5.51c-.846.152-1.91.251-3.201.296-.31-.015-.478-.224-.49-.602.027-.25.2-.396.49-.424 1.235-.057 2.302-.168 3.2-.335l.001-1.968z"/><path d="M37.342 2.823h2.818c.791 0 1.186.428 1.186 1.283-.01 0-.027.06-.049.176a191.616 191.616 0 0 0-1.796 4.201 2.07 2.07 0 0 0-.05.246c0 .117.033.211.098.281 1.341 1.407 2.011 2.836 2.011 4.29 0 .867-.214 1.576-.643 2.127-.428.55-.988.826-1.68.826-.33 0-.858-.14-1.582-.422-.23-.059-.363-.199-.396-.422.011-.316.165-.48.461-.492.033 0 .089.017.165.052.692.258 1.165.387 1.418.387.384 0 .719-.193 1.005-.58.253-.375.379-.867.379-1.476 0-1.266-.604-2.538-1.813-3.815-.197-.246-.297-.498-.297-.756 0-.082.034-.222.1-.422a187.033 187.033 0 0 0 1.68-3.867.562.562 0 0 0 .066-.21c0-.376-.175-.563-.527-.563h-2.44c-.439 0-.658.234-.658.703v13.87c0 .315-.134.474-.403.474-.313 0-.47-.159-.47-.475V4.106c0-.855.4-1.283 1.202-1.283h.215zm-6.55-.773c.289.011.446.158.469.44v1.88c.867-.188 1.84-.48 2.916-.879a.196.196 0 0 1 .116-.035c.242.012.373.13.395.351 0 .246-.11.411-.33.493-1.141.421-2.175.732-3.097.931v2.936h2.9c.253.011.385.158.395.44-.01.257-.142.392-.395.403h-2.9v1.336c0 .622-.023 1.207-.067 1.758h3.362c.253.012.385.153.396.422-.011.27-.143.41-.396.422h-3.445a6.745 6.745 0 0 1-.153.844c-.27 1.23-.734 2.273-1.395 3.13a8.273 8.273 0 0 1-1.615 1.581.632.632 0 0 1-.395.14c-.264-.047-.418-.21-.462-.492 0-.14.044-.258.132-.35.605-.47 1.082-.915 1.433-1.337.605-.703 1.055-1.577 1.352-2.62.066-.304.121-.603.165-.896h-3.395c-.264-.012-.4-.152-.412-.422.011-.269.148-.41.412-.422h3.527c.055-.586.082-1.172.082-1.758V9.01h-2.966c-.253-.01-.385-.146-.396-.404.011-.28.143-.428.396-.439h2.966V5.39c-.857.164-1.956.27-3.296.317-.252-.012-.385-.176-.395-.492.022-.2.154-.31.395-.334 1.275-.059 2.374-.176 3.296-.352V2.49c.035-.28.169-.428.405-.439z"/><path fill-rule="nonzero" d="M40.16 2.923h-3.033c-.745 0-1.103.382-1.103 1.183V18.24c0 .261.113.375.37.375.21 0 .304-.11.304-.375V4.37c0-.523.263-.803.759-.803h2.44c.408 0 .626.233.626.662a.629.629 0 0 1-.073.25 183.326 183.326 0 0 1-1.678 3.86c-.064.193-.095.323-.095.39 0 .234.09.464.27.688 1.225 1.293 1.84 2.589 1.84 3.883 0 .629-.131 1.14-.399 1.536-.303.41-.667.62-1.085.62-.27 0-.75-.13-1.46-.396a.503.503 0 0 0-.119-.043c-.242.01-.356.13-.366.378.027.182.129.29.333.343.714.277 1.232.415 1.545.415.662 0 1.192-.26 1.602-.787.415-.533.622-1.22.622-2.066 0-1.425-.658-2.83-1.983-4.221a.493.493 0 0 1-.126-.35c0-.034.016-.11.057-.284a179.209 179.209 0 0 1 1.79-4.18c.02-.11.033-.173.047-.21-.014-.767-.367-1.132-1.085-1.132zm0-.2c.848 0 1.286.474 1.286 1.383l-.1.1c.078 0 .045.118.043.117a199.567 199.567 0 0 0-1.79 4.183c-.032.132-.048.213-.048.223 0 .093.024.163.07.212 1.358 1.425 2.04 2.878 2.04 4.36 0 .887-.222 1.618-.665 2.188-.448.575-1.037.864-1.76.864-.344 0-.881-.143-1.606-.425a.586.586 0 0 1-.47-.522c.012-.368.207-.576.56-.589a.52.52 0 0 1 .2.059c.681.253 1.146.38 1.383.38.35 0 .656-.176.922-.536.24-.356.362-.828.362-1.42 0-1.238-.593-2.487-1.79-3.752-.212-.263-.32-.537-.32-.819 0-.094.035-.24.108-.463.51-1.132 1.068-2.415 1.682-3.868a.504.504 0 0 0 .056-.169c0-.32-.132-.462-.427-.462h-2.44c-.382 0-.558.188-.558.603v13.87c0 .368-.175.574-.503.574-.369 0-.57-.204-.57-.575V4.106c0-.909.444-1.383 1.302-1.383h3.033zm-9.673-.234v2.04l-.081.098c-.926.176-2.03.294-3.306.353-.197.019-.288.096-.304.231.009.267.104.386.291.395 1.334-.046 2.429-.152 3.281-.315l.12.098v2.778l-.1.1h-2.963c-.198.009-.29.112-.3.335.009.207.1.3.296.308h2.966l.1.1v1.336c0 .592-.028 1.181-.083 1.768l-.1.09h-3.522c-.21.01-.307.109-.316.318.009.219.105.317.312.326h3.395l.1.115c-.045.293-.1.593-.169.909-.301 1.058-.758 1.944-1.37 2.656-.358.429-.84.879-1.438 1.341a.388.388 0 0 0-.106.267c.037.24.16.37.363.407.12 0 .23-.039.335-.12a8.173 8.173 0 0 0 1.596-1.563c.651-.844 1.11-1.873 1.377-3.092a6.63 6.63 0 0 0 .15-.832l.1-.088h3.44c.2-.01.292-.106.301-.318-.01-.218-.1-.316-.296-.326h-3.362l-.1-.108c.045-.551.067-1.134.067-1.75V9.01l.1-.1h2.895c.201-.008.292-.101.3-.3-.008-.231-.101-.334-.295-.343h-2.9l-.1-.1V5.231l.079-.097c.915-.198 1.943-.507 3.084-.927.18-.067.264-.194.265-.39-.017-.171-.108-.251-.296-.26-.024 0-.042.005-.08.028-1.08.4-2.058.694-2.931.883l-.121-.098V2.497c-.018-.228-.132-.336-.368-.347-.181.01-.278.117-.306.34zm-.2 1.956V2.477c.041-.327.212-.513.5-.527.348.013.547.2.574.54v1.756c.833-.188 1.76-.47 2.76-.837a.3.3 0 0 1 .177-.053c.29.015.462.168.49.451 0 .288-.135.49-.395.587-1.116.412-2.127.718-3.032.918v2.755h2.804c.307.014.479.204.491.543-.012.31-.186.487-.495.5h-2.8v1.236c0 .581-.02 1.134-.059 1.658h3.259c.306.015.477.198.49.526-.013.321-.184.504-.495.518H31.2c-.036.277-.084.53-.143.766-.272 1.244-.743 2.3-1.414 3.168-.454.592-1 1.126-1.633 1.6a.734.734 0 0 1-.474.16c-.307-.055-.492-.253-.544-.59 0-.166.053-.309.17-.43.6-.465 1.072-.905 1.42-1.323.594-.69 1.037-1.55 1.33-2.576.057-.264.105-.523.146-.775h-3.284c-.316-.014-.493-.196-.507-.526.014-.32.192-.503.512-.518h3.435c.05-.55.074-1.103.074-1.658V9.11h-2.87c-.306-.013-.478-.19-.492-.508.013-.331.184-.521.496-.535h2.866V5.51c-.846.152-1.91.251-3.201.296-.31-.015-.478-.224-.49-.602.028-.25.2-.396.49-.424 1.235-.057 2.302-.168 3.201-.335z"/></g></svg>