<svg xmlns="http://www.w3.org/2000/svg" width="70" height="20"><g fill="#FFF" fill-rule="evenodd" opacity=".797"><path d="M5.795 5.136c.156 0 .268.094.336.281.347.725.576 1.462.688 2.21.079.433.118.731.118.895-.01.292-.146.45-.404.474-.257-.036-.391-.193-.402-.474-.068-.643-.158-1.152-.27-1.527a7.13 7.13 0 0 0-.403-1.227.59.59 0 0 1-.067-.193c.023-.27.157-.416.404-.439M8.483 2.05c.302.023.459.193.47.508v1.106h3.091c.258.011.392.158.403.439-.011.256-.145.391-.403.403H4.72c-.258-.012-.392-.147-.404-.403.012-.281.146-.428.404-.44h3.292V2.558c.023-.315.18-.485.471-.508m2.62 2.825c.291.01.448.168.47.472a43.489 43.489 0 0 1-.52 2.175c-.19.656-.425 1.31-.705 1.966h2.166c.247.012.381.151.403.42-.022.27-.156.41-.403.422H4.467c-.268-.012-.408-.152-.42-.421.012-.27.152-.41.42-.42h4.99c.268-.644.487-1.264.656-1.861.29-.936.486-1.719.587-2.35.034-.258.168-.393.404-.403"/><path fill-rule="nonzero" d="M5.491 5.575a.67.67 0 0 0 .06.154c.192.46.328.875.406 1.238.114.382.205.896.274 1.551.009.233.108.35.293.378.206-.019.304-.134.313-.374 0-.156-.039-.45-.117-.88a7.693 7.693 0 0 0-.683-2.19c-.054-.15-.13-.214-.238-.216-.193.02-.29.126-.308.34zm.294-.538h.01c.202 0 .349.122.426.337.351.733.584 1.48.697 2.235.079.439.119.742.119.917-.013.34-.184.54-.517.569-.307-.043-.477-.242-.488-.562-.068-.638-.156-1.14-.268-1.517a7.025 7.025 0 0 0-.396-1.206.601.601 0 0 1-.076-.243c.027-.317.197-.502.493-.53zm2.327-2.48v1.106l-.1.1H4.724c-.204.009-.298.112-.308.334.01.206.102.298.304.308h7.32c.205-.01.298-.102.307-.3-.01-.23-.103-.333-.303-.342h-3.09l-.1-.1V2.56c-.01-.263-.126-.39-.37-.412-.236.021-.353.15-.372.408zm-.2 1.006V2.55c.027-.364.221-.574.563-.601.37.027.565.239.578.608v1.006h2.995c.312.014.486.203.5.543-.015.309-.19.485-.504.499H4.715c-.31-.014-.485-.19-.499-.507.014-.332.188-.521.504-.535h3.192zm2.887 1.73c-.102.636-.299 1.423-.59 2.361-.17.6-.389 1.223-.66 1.872l-.092.061H4.472c-.217.01-.315.107-.324.316.009.218.107.317.32.326h8.041c.195-.01.29-.109.309-.313-.018-.22-.113-.32-.304-.329h-2.166l-.092-.14c.28-.654.513-1.304.7-1.951.224-.854.397-1.577.518-2.142-.019-.253-.134-.37-.37-.38-.182.01-.277.106-.305.319zM9.39 9.387c.256-.62.465-1.215.627-1.79.29-.932.484-1.71.584-2.333.04-.304.213-.477.498-.49.35.012.548.21.573.593a43.576 43.576 0 0 1-.523 2.182 17.205 17.205 0 0 1-.65 1.838h2.02c.299.014.472.195.498.529-.026.317-.2.499-.503.513H4.463c-.32-.014-.502-.196-.515-.526.013-.32.194-.502.52-.516H9.39z"/><path d="M16.076 2.904h2.487c.716 0 1.075.363 1.075 1.09-.012 0-.029.062-.05.187a172.754 172.754 0 0 0-2.034 4.121 1.422 1.422 0 0 0-.067.273c0 .114.04.204.118.272 1.277 1.408 1.915 2.833 1.915 4.275 0 .942-.23 1.709-.689 2.299-.47.601-1.075.903-1.815.903-.335 0-.85-.091-1.545-.274-.235-.056-.37-.192-.403-.408.011-.295.168-.448.47-.46a.72.72 0 0 1 .168.034c.672.148 1.132.222 1.378.222.425 0 .795-.216 1.109-.647.291-.432.436-.988.436-1.67 0-1.26-.577-2.53-1.73-3.814-.19-.239-.286-.483-.286-.732 0-.102.04-.244.118-.426.571-1.147 1.198-2.436 1.881-3.865a.554.554 0 0 0 .084-.222c0-.227-.111-.34-.335-.34h-3.293c-.448 0-.672.226-.672.68v13.573c0 .26-.136.392-.411.392-.318 0-.479-.131-.479-.392V4.284c0-.92.453-1.38 1.36-1.38h1.21zm-5.659 14.032c.492 0 .737-.25.737-.749v-2.793c0-.499-.245-.749-.737-.749h-4.02c-.49 0-.736.25-.736.749v2.793c0 .5.245.749.737.749h4.02zm-4.366-5.109h4.714c.853 0 1.279.432 1.279 1.295v3.337c0 .863-.426 1.294-1.279 1.294H6.051c-.854 0-1.281-.43-1.281-1.294v-3.337c0-.863.427-1.295 1.28-1.295z"/><path fill-rule="nonzero" d="M18.563 3.004h-3.697c-.851 0-1.26.415-1.26 1.28v13.691c0 .2.112.292.379.292.22 0 .31-.087.31-.292V4.403c0-.51.27-.781.773-.781h3.293c.28 0 .435.158.435.44a.603.603 0 0 1-.094.265c-.683 1.43-1.31 2.719-1.879 3.861-.074.173-.11.302-.11.387 0 .225.087.448.26.665 1.17 1.301 1.756 2.595 1.756 3.882 0 .7-.15 1.275-.455 1.728-.332.455-.73.688-1.19.688-.255 0-.717-.074-1.405-.226a.737.737 0 0 0-.136-.03c-.252.01-.366.122-.377.344.027.175.131.28.33.328.687.18 1.195.27 1.52.27.709 0 1.285-.287 1.736-.865.445-.571.668-1.316.668-2.237 0-1.415-.628-2.817-1.881-4.2a.443.443 0 0 1-.152-.347c0-.049.023-.143.077-.316.515-1.09 1.193-2.465 2.025-4.095.02-.118.032-.184.048-.222-.016-.636-.33-.938-.974-.938zm0-.2c.772 0 1.175.408 1.175 1.19l-.1.1c.077 0 .045.118.038.132-.84 1.657-1.517 3.03-2.026 4.105a1.625 1.625 0 0 0-.063.244c0 .085.027.148.092.205 1.292 1.425 1.941 2.873 1.941 4.342 0 .963-.236 1.75-.71 2.36-.49.626-1.123.942-1.894.942-.346 0-.868-.093-1.568-.276-.274-.066-.44-.234-.48-.51.013-.348.212-.542.57-.556.046 0 .107.013.19.037.668.146 1.12.22 1.356.22.39 0 .732-.2 1.026-.604.28-.414.42-.95.42-1.613 0-1.233-.567-2.481-1.71-3.753-.203-.255-.307-.52-.307-.794 0-.118.042-.27.129-.47a276.62 276.62 0 0 0 1.883-3.87.53.53 0 0 0 .071-.173c0-.172-.067-.24-.235-.24h-3.293c-.393 0-.572.182-.572.58v13.573c0 .318-.182.492-.511.492-.37 0-.579-.171-.579-.492V4.284c0-.975.498-1.48 1.46-1.48h3.697zm-8.146 14.232h-4.02c-.546 0-.836-.294-.836-.849v-2.793c0-.554.29-.849.837-.849h4.02c.547 0 .836.295.836.849v2.793c0 .555-.29.849-.837.849zm0-.2c.437 0 .637-.204.637-.649v-2.793c0-.445-.2-.649-.637-.649h-4.02c-.435 0-.636.205-.636.649v2.793c0 .445.2.649.637.649h4.02zm-4.366-4.909c-.799 0-1.181.387-1.181 1.195v3.337c0 .808.382 1.194 1.18 1.194h4.715c.798 0 1.179-.385 1.179-1.194v-3.337c0-.809-.381-1.195-1.179-1.195H6.051zm0-.2h4.714c.909 0 1.379.476 1.379 1.395v3.337c0 .919-.47 1.394-1.379 1.394H6.051c-.91 0-1.381-.476-1.381-1.394v-3.337c0-.918.471-1.395 1.38-1.395z"/><path d="M35.005 7.355c.067.057.112.131.135.222.235.545.57 1.055 1.007 1.533.392.397.83.754 1.31 1.072.113-.09.214-.176.304-.256.75-.669 1.338-1.362 1.764-2.077.167-.284.251-.46.251-.528 0-.147-.112-.222-.335-.222h-3.965c-.18 0-.336.086-.47.256zm4.824 9.894c.447 0 .67-.226.67-.68v-2.095c0-.454-.223-.681-.67-.681h-4.96c-.446 0-.67.227-.67.68v2.095c0 .455.224.681.67.681h4.96zm-5.307-4.291h5.656c.808 0 1.211.409 1.211 1.226v2.657c0 .828-.403 1.243-1.211 1.243h-5.656c-.809 0-1.213-.415-1.213-1.243v-2.657c0-.817.404-1.226 1.213-1.226zm.82-6.675h4.569c.582 0 .873.272.873.816 0 .16-.09.415-.268.767-.403.76-.963 1.504-1.68 2.23-.18.183-.364.353-.555.511.896.443 2.358.886 4.385 1.33a.546.546 0 0 1 .336.493c-.022.238-.157.369-.404.392h-.335a21.618 21.618 0 0 1-2.924-.851 14.568 14.568 0 0 1-1.864-.8 6.95 6.95 0 0 1-1.563.766c-1.063.397-2.284.715-3.662.953-.28-.034-.43-.17-.453-.409.01-.295.14-.454.386-.477 1.5-.25 2.587-.505 3.26-.766.47-.17.89-.363 1.259-.58a7.71 7.71 0 0 1-1.444-1.395 6.062 6.062 0 0 1-.774-1.21c-.526.625-1.069 1.125-1.629 1.5a.678.678 0 0 1-.269.067c-.291-.023-.448-.159-.47-.409.01-.18.1-.317.269-.408a8.529 8.529 0 0 0 2.217-2.077c.202-.296.448-.443.74-.443zm-7.056-.46a.79.79 0 0 1 .403.119c.582.306 1.064.585 1.444.834.393.273.807.585 1.244.937a.961.961 0 0 1 .066.357c-.022.239-.156.37-.402.393a.45.45 0 0 1-.403-.205c-.403-.33-.79-.607-1.16-.835a15.236 15.236 0 0 0-1.394-.8c-.135-.181-.201-.34-.201-.477.044-.182.178-.29.403-.323zM42.263 3.71c.257.011.392.142.403.392-.011.26-.146.397-.403.408h-3.897v.63c-.012.25-.149.38-.411.392-.298-.012-.458-.141-.48-.391V4.51H32.25v.886c-.011.26-.147.403-.41.426-.309-.023-.47-.165-.48-.426v-.886h-3.628c-.258-.01-.392-.147-.404-.408.012-.25.146-.38.404-.392h3.628V2.74c.01-.26.171-.397.48-.409.263.012.399.148.41.409v.97h5.225v-.97c.022-.26.182-.397.48-.409.262.012.4.148.41.409v.97h3.898zM27.614 9.144c.134 0 .269.045.403.135.57.33 1.041.62 1.41.87.382.271.785.595 1.21.97a.916.916 0 0 1 .068.34c-.022.25-.157.387-.404.409-.178 0-.313-.062-.403-.187a14.504 14.504 0 0 0-1.142-.903 21.64 21.64 0 0 0-1.344-.818c-.134-.18-.201-.334-.201-.459.045-.193.178-.312.403-.357zm3.225 3.899c.258.012.392.165.403.46-.01.068-.034.153-.067.255-.515 1.034-1.064 1.896-1.646 2.589a10.935 10.935 0 0 1-1.58 1.583.906.906 0 0 1-.403.154c-.235-.057-.369-.199-.403-.426 0-.125.045-.261.135-.409a11.727 11.727 0 0 0 1.764-1.72c.403-.454.868-1.174 1.394-2.162.056-.182.19-.29.403-.324z"/><path fill-rule="nonzero" d="M34.94 7.431l-.013-.138c.153-.193.337-.294.549-.294h3.965c.272 0 .435.109.435.322 0 .095-.086.274-.265.58-.433.725-1.027 1.425-1.784 2.1-.096.085-.198.171-.307.259l-.118.006a8.239 8.239 0 0 1-1.328-1.089 5.584 5.584 0 0 1-1.03-1.575.318.318 0 0 0-.104-.17zm.292.106c.23.535.56 1.036.987 1.502.368.374.78.714 1.233 1.019.085-.07.165-.138.242-.206.742-.662 1.324-1.347 1.745-2.053.155-.265.237-.436.237-.478 0-.081-.06-.122-.235-.122h-3.965a.457.457 0 0 0-.335.153c.044.057.075.12.09.185zm4.597 9.812h-4.96c-.502 0-.77-.272-.77-.78v-2.095c0-.509.268-.781.77-.781h4.96c.502 0 .77.272.77.78v2.095c0 .51-.268.781-.77.781zm0-.2c.391 0 .57-.181.57-.58v-2.095c0-.4-.179-.581-.57-.581h-4.96c-.39 0-.57.182-.57.58v2.095c0 .4.18.581.57.581h4.96zm-5.307-4.091c-.753 0-1.113.364-1.113 1.126v2.657c0 .773.36 1.143 1.113 1.143h5.656c.752 0 1.111-.37 1.111-1.143v-2.657c0-.763-.359-1.126-1.111-1.126h-5.656zm0-.2h5.656c.863 0 1.311.453 1.311 1.326v2.657c0 .883-.447 1.343-1.311 1.343h-5.656c-.864 0-1.313-.46-1.313-1.343v-2.657c0-.872.449-1.326 1.313-1.326zm.82-6.475c-.257 0-.473.13-.66.402-.588.804-1.337 1.504-2.25 2.106-.138.074-.207.18-.216.312.017.198.133.298.37.317a.58.58 0 0 0 .213-.05c.551-.37 1.087-.863 1.61-1.48l.166.021c.177.38.43.776.761 1.19a7.61 7.61 0 0 0 1.425 1.378l-.009.166a7.747 7.747 0 0 1-1.274.586c-.68.264-1.773.521-3.286.773-.193.017-.286.133-.295.368.017.189.13.29.336.32 1.372-.238 2.586-.554 3.647-.95a6.85 6.85 0 0 0 1.54-.755l.102-.005c.51.27 1.126.534 1.853.795.864.326 1.833.608 2.888.845h.326c.2-.018.296-.112.313-.287a.443.443 0 0 0-.257-.4c-2.037-.446-3.504-.891-4.408-1.338l-.02-.166c.19-.158.372-.326.548-.504.71-.72 1.264-1.456 1.662-2.207.172-.338.257-.582.257-.72 0-.488-.245-.717-.773-.717h-4.57zm-.88 1.852a7.872 7.872 0 0 1-1.566 1.409.77.77 0 0 1-.317.076c-.338-.027-.536-.198-.563-.514a.568.568 0 0 1 .314-.487c.886-.584 1.617-1.268 2.19-2.05.219-.321.495-.486.822-.486h4.569c.636 0 .973.315.973.916 0 .18-.093.447-.28.814-.408.77-.974 1.521-1.697 2.254a7.942 7.942 0 0 1-.444.417c.896.416 2.305.835 4.246 1.262a.65.65 0 0 1 .392.593c-.026.287-.2.455-.503.483l-.357-.002a21.706 21.706 0 0 1-2.935-.855 14.877 14.877 0 0 1-1.826-.779 7.053 7.053 0 0 1-1.533.744c-1.07.4-2.296.72-3.709.96-.324-.04-.514-.211-.54-.512.011-.343.176-.546.469-.572 1.493-.249 2.574-.503 3.241-.762.412-.15.783-.315 1.113-.497a7.778 7.778 0 0 1-1.341-1.322c-.3-.375-.54-.739-.719-1.09zm-6.48-2.089c0 .112.06.252.148.388.578.3 1.045.567 1.401.804.374.23.764.51 1.19.865.07.107.174.16.31.16.2-.019.295-.112.312-.293 0-.113-.02-.22-.03-.28a22.188 22.188 0 0 0-1.235-.93 17.9 17.9 0 0 0-1.44-.832.694.694 0 0 0-.345-.105c-.182.029-.28.108-.31.223zm.289-.422l.015-.001c.152 0 .304.045.45.13.579.305 1.065.586 1.454.84.394.275.81.588 1.28.983.049.125.073.256.073.403-.026.287-.2.455-.502.484-.212 0-.379-.085-.466-.227-.4-.327-.783-.602-1.152-.83a18.16 18.16 0 0 0-1.419-.823c-.146-.197-.221-.375-.219-.56.056-.225.224-.36.486-.4zM38.366 3.81l-.1-.1v-.967c-.01-.209-.105-.304-.307-.313-.25.01-.367.11-.384.309v.97l-.1.1H32.25l-.1-.1v-.966c-.009-.21-.104-.304-.307-.313-.259.01-.375.108-.383.309v.97l-.1.1h-3.624c-.207.01-.299.1-.308.289.01.21.102.304.304.312h3.628l.1.1v.882c.009.206.126.311.37.33.214-.018.31-.119.32-.326v-.886l.1-.1h5.225l.1.1v.622c.017.196.133.29.375.3.212-.01.307-.099.316-.291V4.51l.1-.1h3.893c.204-.009.298-.103.307-.303-.009-.197-.1-.287-.305-.297h-3.895zm.1-.2h3.797c.313.014.49.185.503.496-.014.313-.19.491-.503.504h-3.797v.535c-.014.303-.193.473-.515.487-.345-.014-.55-.18-.576-.491V4.61H32.35v.79c-.014.312-.19.495-.518.521-.356-.025-.559-.206-.572-.525v-.786h-3.533c-.31-.013-.485-.19-.499-.513.014-.302.19-.473.504-.487h3.528v-.875c.013-.316.218-.491.584-.505.314.014.492.192.506.509v.87h5.025v-.878c.027-.314.23-.487.584-.5.314.013.493.19.507.508v.87zM27.31 9.5c0 .1.059.235.15.372.562.32 1.012.593 1.353.823.374.265.757.568 1.165.926.07.098.174.146.313.146.199-.018.295-.116.313-.309 0-.101-.02-.202-.033-.265a15.3 15.3 0 0 0-1.2-.963 24.199 24.199 0 0 0-1.41-.869.63.63 0 0 0-.338-.118c-.181.039-.28.129-.313.257zm.283-.455l.02-.002c.155 0 .308.051.453.149.573.33 1.045.621 1.419.874.381.272.785.597 1.245 1.015.05.124.074.25.073.386-.026.298-.199.473-.503.5-.21 0-.375-.077-.469-.212a14.406 14.406 0 0 0-1.132-.895c-.334-.225-.78-.497-1.368-.841-.146-.196-.221-.368-.219-.542.055-.233.22-.38.481-.432zm2.93 4.368c-.53.994-.998 1.721-1.405 2.18a11.335 11.335 0 0 1-1.756 1.708.718.718 0 0 0-.121.341c.028.187.132.297.29.342a.805.805 0 0 0 .355-.133 10.84 10.84 0 0 0 1.566-1.57c.577-.687 1.121-1.543 1.627-2.555.033-.1.054-.18.062-.22-.009-.242-.101-.351-.297-.364-.17.03-.27.113-.32.27zm.3-.47h.02c.312.013.485.21.497.574a1.75 1.75 0 0 1-.077.285c-.517 1.039-1.07 1.908-1.658 2.607-.529.64-1.06 1.172-1.599 1.602a.982.982 0 0 1-.484.169.587.587 0 0 1-.48-.523c0-.145.05-.299.172-.487a11.64 11.64 0 0 0 1.752-1.708c.397-.447.858-1.161 1.374-2.126.067-.22.234-.353.483-.393z"/><g><path d="M55.028 5.74c.247.01.38.147.404.408-.023.26-.157.397-.404.409h-1.814v.647c.38.987.823 1.918 1.327 2.793.224.397.52.846.89 1.345.034.113.056.198.068.256a.509.509 0 0 1-.404.425c-.145-.01-.28-.085-.403-.221a11.729 11.729 0 0 1-1.007-1.737c-.157-.352-.314-.72-.47-1.107v8.855c-.024.25-.158.38-.404.392-.258-.012-.392-.142-.403-.392V9.196c-.146.488-.297.954-.454 1.397a19.23 19.23 0 0 1-1.831 3.746.557.557 0 0 1-.404.187c-.245-.022-.38-.159-.403-.409 0-.056.023-.147.068-.272a21.956 21.956 0 0 0 1.814-3.474c.437-1.1.84-2.372 1.21-3.814h-2.084c-.257-.012-.391-.148-.403-.409.012-.261.146-.397.403-.409h2.084V2.62c.011-.26.145-.397.403-.409.246.012.38.148.403.409v3.12h1.814z"/><path fill-rule="nonzero" d="M53.214 5.84l-.1-.1V2.627c-.018-.212-.113-.309-.298-.318-.206.01-.3.104-.308.309v3.12l-.1.1h-2.08c-.205.01-.298.104-.307.305.01.209.103.304.303.313h2.084l.097.125c-.372 1.447-.776 2.722-1.215 3.828a21.749 21.749 0 0 1-1.812 3.469.976.976 0 0 0-.062.23c.018.201.115.3.303.317.118 0 .227-.05.319-.14a19.13 19.13 0 0 0 1.822-3.726c.154-.436.304-.9.452-1.393l.196.029v8.613c.009.197.1.286.298.296.196-.01.29-.1.308-.292V8.958l.193-.038c.156.386.313.754.468 1.102.299.629.632 1.204.99 1.713.109.118.22.18.306.19.186-.046.292-.157.33-.308-.012-.056-.034-.14-.05-.216-.369-.498-.669-.95-.897-1.354a19.447 19.447 0 0 1-1.34-2.843v-.647l.1-.1h1.81c.195-.01.29-.105.308-.3-.019-.212-.112-.308-.306-.318h-1.812zm.1-.2h1.714c.303.013.476.19.503.517-.027.31-.2.486-.503.5h-1.715l-.005.511c.378.981.818 1.908 1.32 2.78.224.397.52.842.9 1.365.033.113.056.202.069.304-.053.265-.216.437-.51.506-.171-.013-.329-.1-.477-.263a11.834 11.834 0 0 1-1.017-1.754 33.78 33.78 0 0 1-.279-.644v8.36c-.027.3-.202.469-.507.483-.31-.014-.485-.185-.5-.492V9.856a19.241 19.241 0 0 1-2.114 4.553.658.658 0 0 1-.483.217c-.294-.027-.466-.202-.494-.509 0-.07.025-.17.084-.326.68-1.05 1.28-2.202 1.805-3.457.422-1.063.813-2.29 1.174-3.677h-1.96c-.308-.014-.484-.192-.498-.513.014-.313.19-.49.503-.505h1.984V2.614c.014-.312.189-.49.508-.504.297.014.47.19.498.509v3.02z"/><path d="M58.27 4.087c.045.046.09.097.135.154.179.783.465 1.521.857 2.213a8.583 8.583 0 0 0 1.26 1.635c.235-.192.447-.397.638-.613.716-.749 1.198-1.441 1.445-2.077.235-.557.352-1.08.352-1.567 0-.181-.134-.273-.403-.273h-3.83c-.201 0-.324.063-.37.187-.022.115-.05.228-.083.341m.252-1.276h4.183c.75 0 1.125.34 1.125 1.02 0 .58-.106 1.148-.32 1.704-.301.772-.783 1.532-1.444 2.282-.269.306-.554.596-.857.868.795.647 2.05 1.255 3.764 1.823.235.067.369.226.403.476-.045.239-.18.38-.403.426a.574.574 0 0 1-.186-.034c-1.903-.648-3.314-1.363-4.232-2.145-.359.26-.734.51-1.126.749a18.31 18.31 0 0 1-3.125 1.362 2.265 2.265 0 0 1-.336.068c-.246-.057-.403-.198-.47-.426a.646.646 0 0 1 .269-.476c1.355-.41 2.402-.84 3.14-1.295.348-.193.673-.397.975-.613a7.709 7.709 0 0 1-1.344-1.787 6.91 6.91 0 0 1-.739-1.687c-.313.466-.7.897-1.159 1.294a.605.605 0 0 1-.47.205c-.225-.046-.359-.176-.403-.392 0-.09.022-.188.066-.29a4.921 4.921 0 0 0 1.16-1.157c.347-.466.587-.977.722-1.533.057-.295.325-.442.807-.442"/><path fill-rule="nonzero" d="M58.2 4.158l-.025-.099c.032-.108.059-.219.086-.347.061-.17.224-.253.463-.253h3.83c.318 0 .503.126.503.373 0 .502-.12 1.037-.36 1.603-.251.65-.74 1.353-1.462 2.107-.196.222-.412.43-.65.625l-.135-.007a8.686 8.686 0 0 1-1.275-1.657 7.818 7.818 0 0 1-.848-2.2 1.867 1.867 0 0 0-.128-.145zm.303.06c.176.774.458 1.503.844 2.185a8.491 8.491 0 0 0 1.181 1.55c.203-.17.388-.352.56-.546.707-.74 1.182-1.422 1.424-2.047.23-.545.345-1.054.345-1.528 0-.116-.083-.173-.303-.173h-3.83c-.163 0-.247.043-.271.107-.02.1-.044.198-.07.294.034.039.072.087.12.158zm.02-1.307c-.44 0-.663.122-.71.366a4.295 4.295 0 0 1-.738 1.567 4.572 4.572 0 0 1-1.15 1.14.669.669 0 0 0-.06.229c.037.176.14.276.306.312a.516.516 0 0 0 .405-.18 6.457 6.457 0 0 0 1.141-1.275l.18.028c.175.604.418 1.158.73 1.667a7.609 7.609 0 0 0 1.326 1.764l-.012.152c-.304.218-.632.425-.98.617-.746.46-1.8.894-3.135 1.29a.563.563 0 0 0-.231.368.49.49 0 0 0 .363.355c.093-.01.2-.033.315-.064a18.207 18.207 0 0 0 3.105-1.353c.389-.236.762-.485 1.119-.744l.123.005c.908.773 2.308 1.483 4.2 2.126a.62.62 0 0 0 .134.031.385.385 0 0 0 .324-.314c-.03-.212-.136-.338-.336-.396-1.724-.57-2.989-1.183-3.795-1.84l-.004-.151c.296-.266.578-.552.85-.86.653-.742 1.128-1.493 1.425-2.252.209-.544.313-1.1.313-1.667 0-.624-.328-.921-1.025-.921h-4.183zm-1.808 3.576a.71.71 0 0 1-.564.236.575.575 0 0 1-.483-.49c0-.106.025-.217.109-.371.437-.31.816-.689 1.136-1.136.34-.455.575-.954.705-1.491.067-.352.38-.524.905-.524h4.183c.803 0 1.225.382 1.225 1.12 0 .593-.109 1.173-.326 1.74-.307.783-.794 1.553-1.462 2.312-.25.283-.509.549-.779.797.788.611 2.002 1.19 3.637 1.731.274.08.435.27.474.592a.59.59 0 0 1-.501.507.671.671 0 0 1-.218-.04c-1.873-.637-3.275-1.34-4.205-2.113-.342.247-.699.483-1.073.71a18.413 18.413 0 0 1-3.147 1.371c-.13.036-.246.06-.384.07a.688.688 0 0 1-.547-.534.744.744 0 0 1 .339-.562c1.349-.407 2.388-.835 3.121-1.286.308-.171.598-.351.868-.54a7.782 7.782 0 0 1-1.274-1.721 6.942 6.942 0 0 1-.69-1.513 6.681 6.681 0 0 1-1.049 1.135z"/><path d="M62.823 17.2c.448 0 .672-.227.672-.68V13.3c0-.454-.224-.681-.672-.681h-4.637c-.447 0-.672.227-.672.682v3.218c0 .454.225.681.672.681h4.637zm-4.905-5.398h5.174c.806 0 1.21.409 1.21 1.226v3.747c0 .817-.404 1.225-1.21 1.225h-5.174c-.807 0-1.21-.408-1.21-1.225v-3.747c0-.817.403-1.226 1.21-1.226z"/><path fill-rule="nonzero" d="M62.823 17.3h-4.637c-.503 0-.772-.272-.772-.78V13.3c0-.508.27-.781.772-.781h4.637c.504 0 .772.272.772.782v3.218c0 .51-.268.781-.772.781zm0-.2c.393 0 .572-.181.572-.58V13.3c0-.399-.18-.581-.572-.581h-4.637c-.392 0-.572.182-.572.582v3.218c0 .4.18.581.572.581h4.637zm-4.905-5.198c-.751 0-1.11.363-1.11 1.126v3.747c0 .762.359 1.125 1.11 1.125h5.174c.75 0 1.11-.363 1.11-1.125v-3.747c0-.762-.36-1.126-1.11-1.126h-5.174zm0-.2h5.174c.862 0 1.31.454 1.31 1.326v3.747c0 .872-.448 1.325-1.31 1.325h-5.174c-.862 0-1.31-.453-1.31-1.325v-3.747c0-.872.448-1.326 1.31-1.326z"/></g></g></svg>